<?xml version="1.0" standalone="no"?>
<!DOCTYPE svg PUBLIC "-//W3C//DTD SVG 20010904//EN"
 "http://www.w3.org/TR/2001/REC-SVG-20010904/DTD/svg10.dtd">
<svg version="1.0" xmlns="http://www.w3.org/2000/svg"
 width="1024.000000pt" height="1024.000000pt" viewBox="0 0 1024.000000 1024.000000"
 preserveAspectRatio="xMidYMid meet">
<metadata>
Created by potrace 1.16, written by Peter Selinger 2001-2019
</metadata>
<g transform="translate(0.000000,1024.000000) scale(0.100000,-0.100000)"
fill="#000000" stroke="none">
<path d="M4320 9601 c-23 -63 -21 -81 10 -81 10 0 31 -5 47 -11 28 -11 28 -11
6 -21 -15 -7 -35 -7 -62 -1 -44 12 -61 3 -61 -33 0 -14 10 -26 29 -33 15 -7
34 -23 41 -36 15 -28 27 -24 40 11 6 14 17 27 27 31 9 4 25 15 36 26 18 18 18
21 4 29 -12 6 -15 17 -11 37 7 36 -11 71 -36 71 -14 0 -20 8 -22 32 -5 51 -24
43 -48 -21z"/>
<path d="M3766 9517 c-5 -20 -11 -23 -36 -19 -25 4 -30 1 -30 -17 0 -17 -4
-20 -29 -15 -23 5 -29 2 -34 -15 -4 -16 -13 -21 -36 -21 -24 0 -31 -4 -31 -20
0 -11 -7 -20 -15 -20 -8 0 -15 -9 -15 -20 0 -24 22 -26 40 -5 7 8 18 15 25 15
7 0 18 7 25 15 7 8 21 15 31 15 9 0 24 6 31 13 7 7 25 18 41 24 15 7 27 17 27
23 0 5 10 10 23 10 13 0 32 6 42 14 26 19 13 46 -24 46 -22 0 -30 -6 -35 -23z"/>
<path d="M3470 9340 c0 -16 -5 -19 -30 -13 -25 4 -30 2 -30 -13 0 -31 -44 -66
-74 -58 -21 5 -26 3 -26 -12 0 -23 -41 -64 -63 -64 -17 0 -67 -45 -67 -60 0
-6 -7 -10 -15 -10 -8 0 -15 -5 -15 -11 0 -22 -45 -59 -72 -59 -18 0 -28 -5
-28 -15 0 -9 -7 -18 -15 -21 -8 -4 -15 -12 -15 -20 0 -8 -7 -14 -15 -14 -8 0
-15 -6 -15 -13 0 -6 -16 -25 -35 -41 -19 -16 -35 -35 -35 -43 0 -7 -7 -13 -15
-13 -8 0 -15 -5 -15 -10 0 -6 -22 -33 -50 -60 -27 -27 -50 -54 -50 -60 0 -5
-7 -10 -15 -10 -8 0 -15 -6 -15 -12 0 -16 -44 -58 -59 -58 -6 0 -11 -13 -11
-30 0 -39 31 -41 55 -3 10 14 35 43 56 63 22 20 39 40 39 44 0 4 6 13 13 20 6
8 19 23 27 36 25 36 58 70 70 70 5 0 10 4 10 8 0 11 97 110 127 129 13 8 23
24 23 35 0 10 5 16 10 13 12 -8 109 65 110 83 0 6 11 12 25 12 14 0 25 4 25 8
0 5 20 23 45 42 25 19 45 40 45 47 0 7 6 13 14 13 21 0 83 38 90 55 3 8 15 15
26 15 15 0 20 7 20 25 0 20 -5 25 -25 25 -18 0 -25 -5 -25 -20z"/>
<path d="M4315 9329 c-16 -5 -37 -6 -46 -4 -39 12 -71 -34 -34 -49 20 -7 19
-42 -3 -58 -28 -21 -54 -67 -50 -91 4 -31 70 -35 116 -7 33 20 43 50 18 50 -8
0 -18 5 -22 12 -5 8 4 9 32 5 27 -5 50 -1 76 11 56 26 52 34 -21 36 -44 1 -51
21 -11 29 24 5 30 12 30 32 0 17 -5 25 -18 25 -10 0 -22 4 -27 9 -6 4 -23 5
-40 0z"/>
<path d="M8340 8990 c0 -12 10 -24 24 -30 15 -5 27 -20 31 -39 6 -30 -8 -71
-25 -71 -15 0 -12 -58 3 -67 16 -10 38 -59 30 -67 -4 -3 -16 -6 -28 -6 -29 0
-33 -6 -27 -35 4 -22 10 -25 47 -25 26 0 45 -5 48 -12 2 -8 8 -9 13 -4 5 5 4
11 -3 13 -9 3 -13 28 -13 74 0 53 -3 69 -14 69 -26 0 -30 23 -8 41 18 14 22
28 22 77 0 51 -3 60 -20 65 -11 3 -20 12 -20 21 0 11 -9 16 -30 16 -23 0 -30
-4 -30 -20z"/>
<path d="M8155 8908 c-3 -7 -6 -47 -8 -88 l-3 -75 -2 83 c-1 45 -6 82 -11 82
-6 0 -9 -28 -8 -62 0 -35 -3 -78 -7 -95 -7 -28 -5 -33 11 -33 24 0 63 -35 63
-56 0 -12 10 -14 43 -12 38 3 42 6 45 32 5 39 -8 48 -46 34 -40 -15 -53 -2
-50 52 4 75 -2 150 -12 150 -6 0 -13 -6 -15 -12z"/>
<path d="M8044 8845 c-9 -17 -15 -37 -40 -123 -2 -8 -11 -12 -21 -10 -15 3
-32 43 -47 111 -8 34 -22 35 -30 1 -10 -39 4 -92 30 -117 13 -12 24 -30 24
-39 0 -12 8 -18 25 -18 19 0 25 5 25 21 0 12 5 19 13 16 6 -2 11 -12 11 -21
-1 -12 7 -16 32 -16 31 0 34 3 34 30 0 20 -5 30 -15 30 -11 0 -15 12 -16 48
-1 26 -4 61 -8 77 -6 28 -8 29 -17 10z"/>
<path d="M6920 8674 c0 -3 23 -27 50 -54 28 -27 50 -53 50 -59 0 -6 7 -11 15
-11 8 0 15 -6 15 -14 0 -8 7 -16 15 -20 8 -3 15 -12 15 -21 0 -8 6 -15 13 -15
6 -1 21 -12 32 -26 11 -14 35 -40 53 -58 17 -18 32 -38 32 -45 0 -6 13 -11 30
-11 25 0 28 3 22 20 -7 19 -216 240 -227 240 -3 0 -19 14 -35 30 -16 17 -36
30 -45 30 -8 0 -15 5 -15 10 0 6 -4 10 -10 10 -5 0 -10 -3 -10 -6z"/>
<path d="M3963 7887 c-17 -7 -35 -15 -39 -19 -4 -5 -19 -8 -33 -8 -14 0 -38
-6 -52 -14 -14 -7 -43 -16 -65 -20 -64 -12 -74 -16 -74 -37 0 -17 7 -19 59
-19 49 0 59 3 64 19 4 16 11 18 51 14 44 -5 46 -4 46 20 0 24 1 25 65 19 l65
-5 0 32 c0 27 -3 31 -27 30 -16 0 -42 -6 -60 -12z"/>
<path d="M5130 7670 c0 -19 5 -30 14 -30 27 0 48 -31 42 -63 -4 -20 0 -38 15
-58 17 -24 28 -29 60 -29 25 0 42 5 45 14 8 21 -14 56 -34 56 -10 0 -28 13
-40 30 -21 28 -22 31 -6 55 26 39 12 55 -46 55 -49 0 -50 -1 -50 -30z"/>
<path d="M6108 7664 c-16 -8 -28 -22 -28 -32 0 -9 28 -42 61 -72 34 -30 76
-70 94 -87 37 -38 55 -42 55 -13 0 11 -7 20 -15 20 -8 0 -15 5 -15 10 0 6 -29
39 -65 75 -35 36 -61 65 -57 66 4 0 26 0 50 -1 39 -1 42 0 42 24 0 24 -3 26
-47 26 -27 -1 -60 -8 -75 -16z"/>
<path d="M4868 7608 c-3 -20 -8 -22 -65 -19 -57 2 -63 1 -63 -17 0 -18 -6 -20
-47 -19 -41 2 -48 -1 -51 -19 -3 -18 -8 -20 -65 -16 -41 3 -66 10 -74 21 -11
15 -12 14 -13 -1 0 -10 4 -18 9 -18 5 0 11 -10 13 -22 2 -19 10 -24 40 -26 21
-2 52 3 70 11 42 19 93 28 113 20 12 -4 14 -13 10 -34 -5 -22 -3 -29 9 -29 17
0 32 41 23 64 -6 16 36 36 123 56 64 16 83 30 74 53 -4 13 -18 17 -54 17 -42
0 -49 -3 -52 -22z"/>
<path d="M3293 7553 c-7 -2 -13 -12 -13 -20 0 -16 252 -273 268 -273 5 0 12
-7 16 -15 8 -22 26 -18 26 5 0 11 -7 20 -15 20 -8 0 -15 6 -15 14 0 8 -7 16
-15 20 -8 3 -15 12 -15 21 0 8 -7 15 -15 15 -8 0 -15 4 -15 8 0 4 -22 31 -50
59 -27 28 -50 56 -50 62 0 6 -7 11 -15 11 -8 0 -15 6 -15 13 0 7 -9 18 -20 25
-11 7 -20 19 -20 27 0 15 -14 18 -37 8z"/>
<path d="M6920 6975 c0 -8 7 -15 15 -15 8 0 15 -6 15 -13 0 -8 16 -27 35 -43
19 -16 35 -35 35 -41 0 -7 7 -13 15 -13 8 0 15 -4 15 -10 0 -5 22 -34 50 -62
27 -29 57 -60 65 -69 8 -9 15 -21 15 -27 0 -7 11 -12 25 -12 49 0 30 38 -71
136 -53 52 -98 94 -100 94 -3 0 -18 14 -34 30 -16 17 -34 30 -40 30 -5 0 -10
7 -10 15 0 8 -7 15 -15 15 -8 0 -15 -7 -15 -15z"/>
<path d="M3736 6955 c-8 -8 -32 -15 -53 -15 -21 0 -50 -6 -65 -14 -14 -8 -44
-17 -65 -20 -50 -9 -65 -19 -57 -39 4 -12 18 -17 49 -17 37 0 44 3 49 25 5 21
10 24 26 15 10 -5 36 -10 58 -10 34 0 41 4 46 24 5 21 10 23 49 19 38 -5 45
-3 49 15 3 12 3 23 0 26 -11 12 -71 5 -86 -9z"/>
<path d="M4156 6836 c3 -8 12 -17 20 -20 8 -3 14 -12 14 -21 0 -8 7 -15 15
-15 8 0 15 -5 15 -11 0 -5 23 -32 50 -58 28 -26 50 -53 50 -60 0 -6 5 -11 10
-11 9 0 50 -36 50 -44 0 -2 -20 -1 -44 1 -39 5 -44 3 -49 -18 -6 -22 -11 -24
-52 -21 -43 4 -45 3 -45 -22 0 -23 4 -26 33 -26 18 0 41 6 52 13 11 7 44 19
74 25 58 13 81 27 81 47 0 11 -69 82 -198 205 -51 48 -87 65 -76 36z"/>
<path d="M8201 6836 c-14 -16 6 -336 22 -355 19 -22 24 23 26 200 1 148 0 157
-19 162 -10 3 -24 0 -29 -7z"/>
<path d="M1940 6386 c0 -130 -3 -175 -12 -179 -7 -2 -10 -8 -5 -12 4 -5 13 0
21 10 7 10 18 15 23 12 24 -15 30 24 28 173 -1 85 -3 158 -4 163 0 4 -12 7
-26 7 l-25 0 0 -174z"/>
<path d="M3500 6540 c0 -5 -13 -10 -30 -10 -48 0 -38 -32 29 -98 115 -111 104
-105 150 -92 22 6 41 15 41 19 0 19 -31 33 -61 27 -25 -5 -32 -2 -36 14 -3 11
-12 20 -19 20 -8 0 -14 6 -14 14 0 8 -7 16 -15 20 -8 3 -15 12 -15 21 0 8 -7
15 -15 15 -8 0 -15 9 -15 20 0 11 5 20 10 20 6 0 10 5 10 10 0 6 -4 10 -10 10
-5 0 -10 -4 -10 -10z"/>
<path d="M4689 6396 c-14 -7 -50 -16 -79 -20 -30 -4 -61 -13 -69 -19 -7 -7
-35 -17 -60 -22 -36 -8 -46 -15 -46 -30 0 -17 8 -20 50 -23 27 -2 53 -8 57
-15 4 -6 11 -8 15 -3 4 5 2 11 -4 13 -7 3 -13 15 -13 27 0 21 3 22 65 18 61
-4 65 -3 65 17 0 19 4 20 44 15 39 -6 44 -4 49 17 3 12 4 26 1 31 -8 12 -46
10 -75 -6z"/>
<path d="M8216 6378 c-3 -18 -10 -114 -15 -212 -11 -188 -8 -209 29 -199 19 5
20 15 20 172 0 176 -7 271 -21 271 -4 0 -10 -15 -13 -32z"/>
<path d="M5358 6048 c-3 -21 -7 -23 -64 -20 -54 3 -62 1 -66 -16 -5 -18 -12
-20 -47 -15 -43 6 -50 -3 -35 -41 8 -20 21 -20 56 -2 14 8 46 17 70 21 24 4
52 13 63 19 11 7 40 16 65 20 56 8 75 19 67 40 -5 12 -20 16 -56 16 -44 0 -50
-3 -53 -22z"/>
<path d="M3210 5977 c-35 -9 -46 -17 -48 -34 -2 -15 2 -23 12 -23 8 0 20 -9
26 -20 6 -11 17 -20 25 -20 8 0 15 -7 15 -14 0 -8 21 -34 46 -58 46 -42 88
-84 110 -110 6 -7 22 -22 35 -34 13 -11 51 -50 84 -87 32 -37 66 -67 75 -67 9
0 21 -5 28 -12 9 -9 15 -9 24 0 7 7 21 12 33 12 26 0 65 27 65 46 0 10 -13 14
-50 14 -38 0 -50 -4 -50 -15 0 -8 -4 -15 -10 -15 -5 0 -10 7 -10 15 0 10 -10
15 -30 15 -19 0 -30 5 -30 14 0 8 -7 16 -15 20 -8 3 -15 12 -15 21 0 8 -7 15
-15 15 -8 0 -15 4 -15 8 0 4 -22 31 -50 59 -27 28 -50 56 -50 62 0 6 -7 11
-15 11 -8 0 -15 5 -15 10 0 6 -16 25 -35 43 -19 17 -35 38 -35 44 0 8 -12 13
-28 13 -15 0 -35 9 -45 20 -16 20 -16 20 27 20 33 0 45 4 48 18 12 43 -10 50
-92 29z"/>
<path d="M4868 5908 c-3 -20 -8 -22 -65 -19 -57 2 -63 0 -63 -17 0 -18 -5 -19
-65 -14 l-65 5 0 -33 0 -33 57 7 c32 4 62 11 67 16 6 6 20 10 31 10 23 0 213
55 222 64 16 15 -23 36 -68 36 -41 0 -48 -3 -51 -22z"/>
<path d="M8105 5538 c-3 -13 -7 -42 -8 -64 -1 -23 -8 -48 -15 -57 -7 -8 -16
-32 -19 -53 -4 -21 -12 -49 -20 -64 -7 -14 -13 -35 -13 -48 0 -12 -7 -33 -15
-46 -19 -28 -10 -56 17 -56 18 0 20 5 15 35 -5 30 -3 35 14 35 18 0 20 6 18
53 -3 47 -1 52 19 55 17 3 22 10 22 33 0 17 -5 39 -10 49 -9 16 -6 21 15 26
24 6 26 10 23 63 -2 43 -7 57 -20 59 -11 2 -19 -5 -23 -20z"/>
<path d="M2076 5515 c-3 -9 -6 -39 -6 -66 0 -42 3 -49 20 -49 17 0 18 -5 13
-52 -3 -29 -10 -56 -16 -59 -5 -4 -6 -13 -2 -20 6 -9 10 -7 16 9 13 33 39 17
39 -24 0 -27 4 -34 19 -34 26 0 34 27 17 61 -8 16 -17 48 -21 71 -4 24 -11 46
-16 49 -5 3 -13 32 -17 65 -5 42 -12 60 -23 62 -9 2 -19 -4 -23 -13z"/>
<path d="M3920 5308 c-46 -13 -56 -23 -40 -43 8 -9 29 -15 56 -15 38 0 44 3
44 22 0 18 5 16 40 -21 22 -23 40 -44 40 -47 0 -3 23 -27 50 -54 28 -27 50
-53 50 -59 0 -6 14 -11 30 -11 20 0 30 -5 30 -15 0 -8 7 -15 15 -15 8 0 15 -6
15 -13 0 -6 16 -25 35 -41 19 -16 35 -35 35 -43 0 -7 7 -13 15 -13 8 0 15 -7
15 -15 0 -8 6 -15 14 -15 7 0 19 -13 26 -30 16 -38 50 -42 50 -6 0 17 -12 33
-40 53 -22 15 -40 33 -40 38 0 6 -16 21 -35 35 -19 14 -35 31 -35 38 0 6 -9
12 -20 12 -11 0 -20 6 -20 14 0 7 -9 16 -20 19 -11 3 -20 13 -20 22 0 15 -51
70 -132 140 -19 17 -37 38 -41 49 -5 13 -13 17 -31 12 -14 -3 -28 -2 -31 4 -7
12 -8 12 -55 -2z"/>
<path d="M3685 5243 c-22 -3 -47 -10 -55 -17 -8 -8 -33 -17 -55 -20 -50 -9
-154 -43 -169 -55 -6 -5 -31 -12 -56 -16 -25 -4 -49 -11 -55 -15 -5 -5 -32
-15 -60 -23 -39 -11 -51 -19 -53 -37 -3 -20 -1 -22 25 -16 23 6 26 5 16 -5 -7
-7 -13 -17 -13 -21 0 -5 63 -71 140 -148 77 -76 140 -144 140 -149 0 -6 7 -11
15 -11 9 0 18 -7 21 -15 9 -22 34 -18 34 5 0 11 -7 20 -15 20 -8 0 -15 5 -15
10 0 6 -37 48 -82 94 -102 103 -148 154 -148 164 0 4 -9 13 -20 20 -25 16 -26
32 -1 32 13 0 21 8 23 22 3 20 8 22 51 19 42 -2 47 0 47 18 0 19 4 20 48 14
26 -3 50 -11 54 -17 4 -6 11 -7 15 -2 4 5 2 11 -4 13 -7 3 -13 15 -13 27 0 21
3 22 65 18 60 -4 65 -3 65 16 0 19 5 20 63 15 34 -3 65 -11 69 -17 4 -6 10 -7
15 -3 4 5 2 11 -4 15 -6 4 -13 21 -15 37 -3 32 -9 34 -73 28z"/>
<path d="M2240 4994 c-15 -38 -12 -54 10 -54 16 0 20 -7 20 -35 0 -24 5 -35
15 -35 10 0 15 -10 15 -34 0 -24 5 -35 18 -38 15 -4 18 -12 15 -35 -4 -24 -1
-31 16 -36 12 -3 21 -12 21 -21 0 -9 8 -16 20 -16 12 0 20 7 20 17 0 20 -38
100 -51 109 -5 3 -9 13 -9 23 0 10 -7 24 -15 31 -8 7 -15 21 -15 31 0 11 -9
36 -20 56 -11 21 -20 43 -20 50 0 23 -30 14 -40 -13z"/>
<path d="M3840 4770 c0 -5 5 -10 10 -10 6 0 10 -10 10 -23 0 -22 -3 -23 -65
-19 -65 4 -65 4 -65 -22 0 -23 -2 -25 -19 -16 -21 11 -100 14 -125 4 -19 -7
-21 -38 -3 -51 6 -5 41 -9 77 -8 50 0 66 4 68 16 2 11 23 19 65 27 34 7 63 16
65 22 2 5 25 10 52 10 51 0 75 16 64 44 -5 12 -19 16 -60 16 -30 0 -54 5 -54
10 0 6 -4 10 -10 10 -5 0 -10 -4 -10 -10z"/>
<path d="M2542 4458 c-14 -14 -16 -48 -2 -48 5 0 19 -10 32 -23 17 -16 22 -32
20 -55 -2 -18 -7 -32 -13 -32 -5 0 -9 -7 -9 -15 0 -8 5 -15 10 -15 6 0 10 7
10 15 0 8 9 15 20 15 11 0 20 -5 20 -11 0 -5 23 -32 50 -58 28 -26 50 -53 50
-60 0 -6 6 -11 14 -11 8 0 16 -5 18 -12 3 -7 10 -8 17 -3 11 6 10 10 -3 17 -9
5 -16 13 -16 19 0 9 -8 21 -37 54 -7 7 -13 17 -13 22 0 5 -12 22 -27 39 -38
41 -82 106 -102 152 -12 25 -22 27 -39 10z"/>
<path d="M7513 4274 c-3 -9 -20 -32 -37 -49 -28 -29 -55 -61 -108 -128 -10
-12 -21 -26 -26 -32 -4 -5 -11 -18 -15 -27 -3 -10 -11 -18 -17 -18 -5 0 -10
-7 -10 -15 0 -8 -7 -15 -15 -15 -9 0 -18 -7 -21 -15 -4 -8 -10 -15 -14 -15
-10 0 -90 -78 -90 -88 -1 -13 -87 -72 -106 -72 -11 0 -26 6 -33 13 -10 10 -11
7 -5 -16 5 -24 1 -33 -25 -57 -17 -16 -31 -34 -31 -40 0 -6 -11 -15 -25 -20
-14 -5 -25 -16 -25 -24 0 -10 -6 -13 -16 -9 -10 4 -22 0 -28 -8 -6 -9 -19 -18
-29 -22 -22 -8 -19 -35 5 -51 13 -8 22 -5 42 17 14 16 26 32 26 38 0 5 14 9
30 9 17 0 30 4 30 9 0 11 47 61 58 61 5 0 12 8 15 19 3 14 11 17 31 14 19 -4
26 -1 26 10 0 9 9 21 20 27 11 6 20 17 20 25 0 8 7 15 15 15 8 0 15 7 15 15 0
8 7 15 15 15 8 0 15 6 15 13 0 6 16 27 35 44 19 18 35 37 35 43 0 5 7 10 15
10 8 0 15 6 15 14 0 8 7 16 15 20 8 3 15 12 15 21 0 8 7 15 15 15 8 0 15 4 15
10 0 12 48 60 60 60 6 0 10 7 10 15 0 9 7 18 15 21 8 4 15 12 15 20 0 8 7 14
15 14 8 0 15 5 15 12 0 6 16 26 36 43 23 20 35 39 32 51 -4 25 -36 30 -45 8z"/>
<path d="M3265 4256 c-38 -12 -76 -25 -82 -29 -18 -11 -16 -47 2 -47 8 0 15
-7 15 -15 0 -8 9 -15 20 -15 11 0 20 -6 20 -14 0 -15 256 -276 271 -276 12 0
49 -38 49 -50 0 -5 9 -10 20 -10 22 0 18 25 -6 34 -8 3 -14 12 -14 21 0 8 -7
15 -15 15 -8 0 -15 5 -15 11 0 5 -22 32 -50 58 -27 26 -50 53 -50 60 0 6 -7
11 -15 11 -8 0 -15 5 -15 10 0 6 -22 33 -50 60 -27 27 -50 57 -50 66 0 12 -7
15 -26 11 -18 -3 -33 2 -45 14 -11 11 -19 21 -19 23 0 2 20 1 44 -1 41 -5 45
-3 48 18 3 22 7 24 51 21 45 -4 47 -3 47 22 0 23 -4 26 -32 25 -18 -1 -64 -11
-103 -23z"/>
<path d="M4383 4250 c-25 -10 -38 -48 -28 -79 6 -21 -9 -29 -20 -11 -3 6 -13
10 -21 10 -9 0 -22 7 -31 15 -8 8 -19 13 -24 9 -5 -3 -12 2 -15 10 -8 20 -24
21 -24 1 0 -8 3 -14 8 -13 10 4 92 -77 92 -90 0 -7 7 -12 15 -12 8 0 15 -7 15
-15 0 -8 7 -15 16 -15 12 0 15 -7 12 -25 -6 -30 14 -49 42 -40 32 10 25 64
-10 77 -9 3 -22 17 -29 32 -13 23 -12 28 4 45 14 17 36 112 24 110 -2 0 -14
-4 -26 -9z"/>
<path d="M2797 4103 c-15 -15 -4 -36 43 -83 28 -27 50 -54 50 -60 0 -5 7 -10
15 -10 8 0 15 -6 15 -13 0 -6 16 -25 35 -41 19 -16 35 -35 35 -43 0 -8 12 -13
30 -13 20 0 30 -5 30 -15 0 -8 7 -15 15 -15 8 0 15 -6 15 -13 0 -6 16 -25 35
-41 19 -16 35 -35 35 -43 0 -8 12 -13 30 -13 20 0 30 -5 30 -15 0 -8 6 -15 14
-15 8 0 17 -9 21 -19 3 -11 12 -22 20 -25 8 -3 15 -13 15 -21 0 -12 8 -15 28
-13 38 4 44 44 8 58 -14 5 -26 14 -26 20 0 5 -6 10 -14 10 -8 0 -16 7 -20 15
-3 8 -15 15 -26 15 -11 0 -20 6 -20 14 0 7 -17 26 -37 42 -46 34 -113 102
-113 114 0 4 -17 19 -37 31 -33 21 -97 83 -169 167 -28 31 -44 39 -57 25z"/>
<path d="M3340 3585 c0 -8 9 -19 20 -25 11 -6 20 -17 20 -25 0 -10 10 -15 30
-15 20 0 30 -5 30 -15 0 -8 7 -15 15 -15 8 0 15 -9 15 -20 0 -16 7 -20 35 -20
29 0 35 -4 35 -21 0 -19 4 -21 30 -15 25 5 30 2 30 -14 0 -16 7 -20 35 -20 28
0 35 -4 35 -20 0 -22 29 -27 48 -8 16 16 -3 48 -29 48 -11 0 -22 7 -25 15 -4
8 -16 15 -29 15 -13 0 -29 10 -38 24 -9 13 -36 33 -61 44 -24 12 -47 26 -51
32 -3 5 -12 10 -20 10 -7 0 -27 14 -45 30 -34 32 -80 41 -80 15z"/>
<path d="M6600 3455 c-7 -8 -18 -15 -26 -15 -7 0 -19 -6 -26 -12 -30 -28 -74
-55 -101 -62 -16 -4 -47 -18 -68 -32 -51 -32 -49 -58 4 -62 32 -3 37 0 37 17
0 17 6 21 35 21 28 0 35 4 35 20 0 16 5 19 30 14 26 -6 30 -4 30 15 0 17 6 21
35 21 28 0 35 4 35 20 0 12 7 20 16 20 10 0 14 7 12 22 -4 27 -30 35 -48 13z"/>
<path d="M4757 3044 c-4 -4 -7 -18 -7 -31 l0 -23 366 0 365 0 -3 28 c-3 25 -6
27 -48 25 -147 -5 -610 -5 -635 1 -17 4 -34 4 -38 0z"/>
<path d="M1490 2224 c0 -9 -9 -18 -21 -21 -16 -5 -19 -12 -17 -42 4 -49 38
-51 52 -3 8 29 13 32 46 32 37 0 80 -31 80 -59 0 -7 5 -21 11 -32 8 -16 13
-18 25 -8 19 16 19 79 -1 79 -10 0 -15 11 -15 35 l0 35 -80 0 c-67 0 -80 -3
-80 -16z"/>
<path d="M4380 2225 c0 -10 -10 -15 -29 -15 -20 0 -30 -6 -34 -20 -3 -11 0
-23 6 -27 17 -11 80 -4 89 10 12 19 195 13 217 -7 10 -9 29 -16 42 -16 14 0
32 -8 41 -17 9 -10 27 -27 40 -38 13 -11 27 -28 31 -37 3 -10 16 -18 27 -18
16 0 20 7 20 30 0 17 -5 30 -10 30 -13 0 -60 49 -60 63 0 5 -13 7 -30 5 -26
-4 -30 -2 -30 20 0 21 -4 24 -30 20 -22 -3 -31 0 -36 14 -5 16 -18 18 -130 18
-104 0 -124 -2 -124 -15z"/>
<path d="M7177 2221 c-4 -16 -11 -18 -51 -14 -42 5 -46 4 -46 -16 0 -11 -6
-21 -14 -21 -7 0 -16 -8 -19 -19 -3 -15 -11 -18 -33 -13 -16 3 -32 10 -36 16
-4 6 -11 7 -15 2 -4 -5 -2 -11 5 -13 17 -7 15 -43 -3 -43 -10 0 -15 -10 -15
-30 0 -42 21 -39 69 10 22 22 46 40 55 40 8 0 17 4 20 9 4 5 27 19 53 32 37
18 71 24 162 28 111 6 116 7 119 29 3 22 2 22 -121 22 -114 0 -125 -2 -130
-19z"/>
<path d="M2050 2220 c0 -5 5 -10 10 -10 7 0 10 -172 10 -495 0 -433 -2 -495
-15 -495 -11 0 -15 12 -15 50 0 44 -3 50 -20 50 -18 0 -20 4 -14 35 6 33 5 35
-20 35 -21 0 -26 -5 -26 -24 0 -13 7 -29 16 -36 8 -8 14 -25 12 -39 -3 -26 -3
-26 -93 -24 -49 1 -102 5 -117 9 -26 6 -28 4 -28 -25 l0 -31 145 0 c90 0 145
-4 145 -10 0 -5 7 -10 15 -10 8 0 15 5 15 10 0 6 103 10 290 10 259 0 290 2
290 16 0 9 9 18 20 21 18 5 20 14 20 99 l0 94 -30 0 c-25 0 -30 4 -30 25 l0
25 -135 0 -135 0 0 355 0 355 -27 0 -28 0 3 -367 c1 -203 5 -374 7 -380 3 -8
24 -13 58 -13 60 0 94 -18 84 -44 -9 -24 10 -56 33 -56 11 0 24 -9 30 -20 6
-11 17 -20 25 -20 22 0 30 22 11 32 -9 5 -16 17 -16 27 0 10 -7 24 -15 31 -25
20 -18 40 14 40 16 0 42 3 60 6 l31 6 -3 -83 -2 -84 -140 -4 c-77 -3 -189 -5
-250 -5 l-110 -1 4 468 3 467 -31 0 c-17 0 -31 5 -31 10 0 6 -4 10 -10 10 -5
0 -10 -4 -10 -10z"/>
<path d="M3370 2220 c0 -5 -13 -10 -28 -10 l-28 0 4 -116 5 -117 -45 7 c-49 7
-74 -8 -62 -38 5 -12 19 -16 59 -16 45 0 55 3 60 20 3 11 13 20 21 20 11 0 14
23 14 120 0 73 4 120 10 120 6 0 10 5 10 10 0 6 -4 10 -10 10 -5 0 -10 -4 -10
-10z"/>
<path d="M4910 2220 c0 -5 5 -10 10 -10 6 0 10 -53 10 -140 l0 -140 45 0 c37
0 45 3 45 19 0 10 -11 26 -25 35 -27 18 -31 41 -13 81 8 19 8 31 -1 52 -10 21
-9 29 3 41 8 8 20 11 26 7 16 -10 191 -16 205 -7 5 4 78 7 160 7 148 0 150 0
153 23 l3 22 -300 0 c-194 0 -301 4 -301 10 0 6 -4 10 -10 10 -5 0 -10 -4 -10
-10z"/>
<path d="M6180 2220 c0 -5 5 -10 10 -10 7 0 10 -172 10 -495 l0 -495 290 0
290 0 0 24 0 25 -262 -1 -263 0 0 471 0 471 -27 0 c-16 0 -28 5 -28 10 0 6 -4
10 -10 10 -5 0 -10 -4 -10 -10z"/>
<path d="M6490 2220 c0 -5 -16 -10 -36 -10 -35 0 -36 -1 -28 -27 4 -16 10
-182 13 -371 5 -289 8 -344 21 -352 8 -6 83 -9 167 -7 151 2 153 2 153 25 0
22 -1 22 -145 22 l-145 0 0 355 c0 230 4 355 10 355 6 0 10 5 10 10 0 6 -4 10
-10 10 -5 0 -10 -4 -10 -10z"/>
<path d="M7530 2221 c0 -6 -17 -11 -37 -13 -45 -4 -58 -32 -21 -47 46 -18 53
-22 74 -34 33 -19 104 -86 104 -97 0 -5 4 -10 9 -10 5 0 14 -13 20 -30 5 -16
15 -30 20 -30 6 0 11 -14 11 -31 0 -17 5 -39 10 -49 9 -17 14 -18 38 -8 15 7
29 13 30 14 4 2 -5 13 -48 61 -14 17 -18 31 -14 53 4 17 11 33 15 36 12 7 11
24 -1 24 -5 0 -10 -7 -10 -15 0 -8 -9 -15 -20 -15 -11 0 -20 7 -20 15 0 8 -7
15 -15 15 -8 0 -15 6 -15 13 0 6 -16 25 -35 41 -19 16 -35 35 -35 43 0 8 -12
13 -30 13 -23 0 -30 4 -30 20 0 11 5 20 10 20 6 0 10 5 10 10 0 6 -4 10 -10
10 -5 0 -10 -4 -10 -9z"/>
<path d="M2757 2203 c-4 -3 -7 -217 -7 -474 0 -458 0 -467 20 -472 11 -3 20
-12 20 -21 0 -14 31 -16 290 -16 l290 0 -1 140 0 140 -163 0 -162 0 0 55 0 55
103 0 c96 0 103 1 103 20 0 18 -7 19 -82 18 -46 -1 -92 2 -104 6 -31 10 -64
-22 -66 -64 -8 -149 -3 -153 173 -145 147 7 193 -2 168 -31 -6 -8 -12 -42 -13
-77 l-1 -62 -255 2 -255 2 2 23 c6 57 4 701 -2 774 -7 81 -7 82 19 99 14 10
23 21 20 26 -6 10 -87 12 -97 2z"/>
<path d="M5554 2173 c3 -21 8 -69 11 -108 6 -66 5 -71 -17 -80 -13 -5 -24 -20
-26 -32 -3 -21 1 -23 42 -23 l46 0 0 140 0 140 -31 0 c-30 0 -31 -1 -25 -37z"/>
<path d="M4250 2155 c0 -9 -7 -18 -15 -21 -8 -4 -15 -12 -15 -20 0 -8 -10 -14
-21 -14 -19 0 -20 -4 -15 -35 6 -31 4 -35 -14 -35 -19 0 -20 -6 -20 -119 0
-110 1 -119 20 -124 29 -8 34 8 35 114 0 107 15 149 73 205 41 40 42 64 2 64
-20 0 -30 -5 -30 -15z"/>
<path d="M8870 2147 c0 -17 12 -29 48 -48 37 -19 53 -36 74 -79 15 -29 33 -57
39 -60 5 -4 9 -27 7 -51 l-3 -44 -89 0 c-81 0 -89 2 -96 21 -15 38 -81 94
-111 94 -31 0 -42 -11 -33 -34 4 -10 18 -16 35 -16 16 0 29 -5 29 -11 0 -6 16
-25 35 -43 19 -19 35 -38 35 -45 0 -7 38 -11 121 -11 104 0 124 -3 135 -17 13
-17 13 -17 14 0 0 9 -4 17 -10 17 -6 0 -10 30 -10 70 0 63 -2 70 -20 70 -17 0
-19 5 -13 33 3 17 10 34 15 35 11 5 10 32 -2 32 -5 0 -10 -7 -10 -15 0 -8 -9
-15 -20 -15 -11 0 -20 4 -20 10 0 5 -22 33 -50 61 -27 28 -50 55 -50 60 0 5
-11 9 -25 9 -19 0 -25 -5 -25 -23z"/>
<path d="M4870 2046 c0 -9 -12 -16 -27 -18 -27 -3 -28 -5 -26 -53 1 -27 -2
-52 -7 -55 -4 -3 -42 -4 -83 -2 -75 4 -76 4 -92 38 -9 19 -22 34 -29 34 -8 0
-16 7 -20 15 -4 10 -19 15 -48 15 -67 0 -90 -9 -86 -34 3 -19 10 -21 63 -21
49 0 60 -4 63 -18 2 -9 10 -17 18 -17 9 0 14 -11 14 -35 l0 -35 130 0 130 0 0
84 c0 47 5 88 10 91 6 3 10 10 10 16 0 5 -4 9 -10 9 -5 0 -10 -6 -10 -14z"/>
<path d="M1701 1983 c-11 -21 -2 -53 15 -53 9 0 14 -11 14 -29 0 -16 7 -34 15
-41 8 -7 15 -23 15 -35 0 -12 7 -28 15 -35 8 -7 15 -22 15 -34 0 -12 6 -28 12
-34 7 -7 18 -30 23 -50 8 -27 16 -37 30 -37 16 0 21 8 23 38 3 32 0 37 -17 37
-17 0 -21 6 -21 35 0 28 -4 35 -19 35 -17 0 -19 5 -14 34 4 28 2 34 -16 39
-17 4 -20 10 -15 35 5 24 2 30 -15 35 -17 4 -20 10 -15 35 5 24 2 30 -15 35
-13 3 -24 -1 -30 -10z"/>
<path d="M5390 1991 l-25 -7 -2 -354 -2 -355 -86 -5 c-53 -3 -90 -1 -93 5 -4
6 -7 167 -7 360 l0 350 -54 2 c-58 3 -95 -16 -84 -43 8 -21 70 -18 82 4 7 12
10 -98 11 -355 l0 -373 145 0 145 0 0 374 c0 206 3 381 6 390 7 17 3 18 -36 7z"/>
<path d="M6000 1987 c0 -7 -8 -17 -19 -24 -17 -11 -18 -26 -16 -247 2 -165 6
-241 15 -251 6 -7 30 -15 53 -17 l42 -3 3 -88 3 -87 -208 2 -208 3 0 85 0 85
50 5 c42 4 50 8 53 28 3 21 1 22 -77 22 -70 0 -81 2 -81 17 0 14 -2 15 -12 4
-10 -11 -10 -14 0 -18 17 -6 17 -274 0 -291 -9 -9 -9 -12 0 -12 7 0 12 5 12
10 0 6 86 10 239 10 231 0 240 1 246 20 3 11 13 20 21 20 11 0 14 23 14 120
l0 120 -65 0 -65 0 2 233 c3 190 5 231 17 229 9 -2 11 3 7 13 -3 9 -6 19 -6
21 0 2 -4 4 -10 4 -5 0 -10 -6 -10 -13z"/>
<path d="M3650 1961 c0 -11 -4 -23 -10 -26 -6 -4 -10 -135 -10 -361 l0 -354
145 0 146 0 -3 374 c-2 206 -6 378 -10 381 -4 4 -14 5 -23 2 -13 -6 -15 -50
-15 -356 l0 -350 -87 -3 c-49 -2 -91 -2 -95 0 -5 2 -8 163 -8 358 0 308 -2
354 -15 354 -8 0 -15 -9 -15 -19z"/>
<path d="M4394 1963 c-3 -10 -11 -28 -17 -41 -8 -17 -7 -30 6 -57 9 -19 23
-35 31 -35 8 0 16 -6 19 -14 4 -9 32 -16 89 -21 46 -4 88 -11 94 -16 7 -6 36
-12 65 -16 42 -5 59 -13 89 -43 20 -20 39 -44 43 -53 8 -21 43 -22 51 -1 11
29 6 44 -14 44 -11 0 -20 6 -20 14 0 8 -7 16 -15 20 -8 3 -15 12 -15 21 0 10
-10 15 -31 15 -22 0 -32 5 -36 20 -4 16 -14 20 -52 20 -26 0 -52 -5 -58 -11
-9 -9 -14 -5 -19 15 -6 25 -8 26 -85 26 -62 0 -79 3 -79 14 0 8 -9 18 -20 21
-26 8 -26 35 1 42 13 4 19 12 17 27 -4 27 -36 34 -44 9z"/>
<path d="M870 1850 c0 -54 -3 -70 -14 -70 -8 0 -16 -7 -18 -16 -3 -14 -17 -17
-95 -15 -87 2 -93 1 -93 -18 0 -28 7 -30 101 -33 96 -2 118 7 150 66 30 57 20
156 -16 156 -12 0 -15 -14 -15 -70z"/>
<path d="M3340 1905 c0 -13 -22 -15 -139 -15 -131 0 -140 -1 -146 -20 -3 -11
-3 -24 0 -30 4 -6 55 -10 122 -10 l116 0 -5 -110 -4 -110 28 0 28 0 0 140 c0
87 4 140 10 140 6 0 10 7 10 15 0 8 -4 15 -10 15 -5 0 -10 -7 -10 -15z"/>
<path d="M4856 1631 c-3 -5 -5 -37 -5 -72 1 -70 -6 -108 -27 -155 -16 -37 -61
-83 -91 -95 -26 -10 -31 -44 -7 -53 26 -10 32 -7 38 19 4 14 13 25 21 25 8 0
15 7 15 15 0 8 7 15 15 15 8 0 15 4 15 9 0 14 45 61 59 61 7 0 11 37 11 120 0
112 -1 120 -19 120 -11 0 -22 -4 -25 -9z"/>
<path d="M7470 1605 c0 -23 -5 -35 -14 -35 -7 0 -16 -9 -19 -20 -4 -17 -10
-20 -34 -14 -15 4 -31 12 -35 18 -4 6 -11 7 -15 2 -4 -5 -2 -11 5 -13 6 -3 12
-13 12 -24 0 -16 -7 -19 -55 -19 -41 0 -57 -4 -62 -15 -8 -21 -1 -26 45 -32
30 -4 53 1 87 17 54 26 95 61 95 81 0 8 9 20 20 27 11 7 20 23 20 37 0 20 -5
25 -25 25 -22 0 -25 -4 -25 -35z"/>
<path d="M8840 1624 c0 -9 -9 -18 -20 -21 -14 -4 -20 -14 -20 -34 0 -38 31
-39 57 -3 18 25 25 27 94 26 41 0 80 0 87 -1 17 -1 6 -78 -14 -102 -17 -19
-18 -45 -2 -55 7 -4 18 2 26 14 8 12 21 22 28 22 11 0 14 19 14 85 l0 85 -125
0 c-108 0 -125 -2 -125 -16z"/>
<path d="M4450 1599 l0 -30 78 2 77 2 3 -33 c2 -18 -1 -37 -7 -43 -14 -14 -14
-44 -1 -52 25 -15 91 88 70 109 -5 5 -10 17 -10 26 0 25 -73 50 -145 50 l-65
0 0 -31z"/>
<path d="M8050 1550 c0 -6 -26 -10 -59 -10 -58 0 -60 -1 -66 -30 -6 -25 -9
-28 -25 -20 -29 15 -40 12 -40 -11 0 -18 4 -20 28 -14 15 4 52 9 83 12 55 4
58 3 93 -33 24 -24 38 -51 42 -76 5 -28 11 -38 25 -38 16 0 19 8 19 49 0 30 5
51 13 54 6 2 8 8 4 13 -5 5 -13 1 -18 -8 -11 -19 -39 -13 -39 8 0 8 -7 14 -15
14 -8 0 -15 6 -15 14 0 8 -7 16 -15 20 -17 6 -21 46 -5 46 6 0 10 5 10 10 0 6
-4 10 -10 10 -5 0 -10 -4 -10 -10z"/>
<path d="M6880 1471 c0 -22 -5 -41 -12 -44 -7 -2 -9 -8 -5 -13 5 -5 13 -1 18
8 11 19 39 13 39 -8 0 -8 7 -14 15 -14 8 0 15 -5 15 -10 0 -6 23 -33 50 -60
28 -27 50 -57 50 -66 0 -13 6 -15 30 -10 25 5 30 2 30 -14 0 -17 7 -20 45 -20
30 0 45 4 45 13 0 20 -22 37 -47 37 -13 0 -31 9 -40 20 -10 11 -21 20 -26 20
-11 0 -86 59 -109 85 -10 11 -17 26 -18 33 0 6 -4 12 -9 12 -5 0 -15 16 -21
35 -8 24 -18 35 -31 35 -15 0 -19 -7 -19 -39z"/>
<path d="M9470 1475 l0 -24 142 -3 142 -3 0 -85 0 -85 -267 -3 -267 -2 0 -25
0 -25 285 0 285 0 0 140 0 140 -160 0 -160 0 0 -25z"/>
<path d="M1110 1448 c0 -10 4 -18 9 -18 5 0 11 -16 13 -35 3 -27 0 -36 -14
-41 -15 -4 -18 -17 -18 -70 l0 -64 146 0 145 0 -3 42 c-4 51 -28 63 -46 23
-12 -25 -14 -26 -104 -23 l-93 3 3 44 c1 23 9 50 18 58 20 20 14 58 -8 58 -10
0 -24 9 -32 20 -14 18 -15 18 -16 3z"/>
<path d="M1437 1373 c-4 -3 -7 -17 -7 -30 l0 -24 143 2 c125 2 142 0 145 -14
2 -10 12 -17 23 -17 14 0 19 7 19 28 0 55 -21 62 -177 62 -77 0 -143 -3 -146
-7z"/>
</g>
</svg>
